<svg width="18" height="17" viewBox="0 0 18 17" fill="none" xmlns="http://www.w3.org/2000/svg">
<path d="M4.22504 16.8248C3.7917 16.8248 3.45004 16.6621 3.20004 16.3368C2.95004 16.0121 2.87504 15.6415 2.97504 15.2248L3.57504 12.8248H1.77504C1.34171 12.8248 0.991705 12.6581 0.725038 12.3248C0.458371 11.9915 0.383372 11.6081 0.500038 11.1748C0.583372 10.8915 0.741705 10.6538 0.975038 10.4618C1.20837 10.2705 1.47504 10.1748 1.77504 10.1748H4.25004L5.07504 6.8248H2.77504C2.3417 6.8248 1.9917 6.65814 1.72504 6.3248C1.45837 5.99147 1.38337 5.60814 1.50004 5.1748C1.58337 4.89147 1.7417 4.65414 1.97504 4.4628C2.20837 4.2708 2.47504 4.1748 2.77504 4.1748H5.75004L6.50004 1.1498C6.58337 0.866472 6.74171 0.633138 6.97504 0.449805C7.20837 0.266471 7.47504 0.174805 7.77504 0.174805C8.20837 0.174805 8.55004 0.337138 8.80004 0.661805C9.05004 0.987138 9.12504 1.35814 9.02504 1.7748L8.42504 4.1748H11.75L12.5 1.1498C12.5834 0.866472 12.7417 0.633138 12.975 0.449805C13.2084 0.266471 13.475 0.174805 13.775 0.174805C14.2084 0.174805 14.55 0.337138 14.8 0.661805C15.05 0.987138 15.125 1.35814 15.025 1.7748L14.425 4.1748H16.225C16.6584 4.1748 17.0084 4.34147 17.275 4.6748C17.5417 5.00814 17.6167 5.39147 17.5 5.8248C17.4167 6.10814 17.2584 6.34547 17.025 6.5368C16.7917 6.7288 16.525 6.8248 16.225 6.8248H13.75L12.925 10.1748H15.225C15.6584 10.1748 16.0084 10.3415 16.275 10.6748C16.5417 11.0081 16.6167 11.3915 16.5 11.8248C16.4167 12.1081 16.2584 12.3458 16.025 12.5378C15.7917 12.7291 15.525 12.8248 15.225 12.8248H12.25L11.5 15.8498C11.4167 16.1331 11.2584 16.3665 11.025 16.5498C10.7917 16.7331 10.525 16.8248 10.225 16.8248C9.79171 16.8248 9.45004 16.6621 9.20004 16.3368C8.95004 16.0121 8.87504 15.6415 8.97504 15.2248L9.57504 12.8248H6.25004L5.50004 15.8498C5.4167 16.1331 5.25837 16.3665 5.02504 16.5498C4.7917 16.7331 4.52504 16.8248 4.22504 16.8248ZM6.92504 10.1748H10.25L11.075 6.8248H7.75004L6.92504 10.1748Z" fill="#535AF1"/>
</svg>
